<svg xmlns="http://www.w3.org/2000/svg" xmlns:rdkit="http://www.rdkit.org/xml" xmlns:xlink="http://www.w3.org/1999/xlink" version="1.1" baseProfile="full" xml:space="preserve" width="600px" height="100px" viewBox="0 0 600 100">
<!-- END OF HEADER -->
<rect style="opacity:1.0;fill:#FFFFFF;stroke:none" width="600.0" height="100.0" x="0.0" y="0.0"> </rect>
<path class="bond-0 atom-0 atom-1" d="M 130.0,5.0 L 129.0,28.9" style="fill:none;fill-rule:evenodd;stroke:#000000;stroke-width:2.0px;stroke-linecap:butt;stroke-linejoin:miter;stroke-opacity:1"/>
<path class="bond-1 atom-1 atom-2" d="M 129.0,28.9 L 107.7,39.9" style="fill:none;fill-rule:evenodd;stroke:#000000;stroke-width:2.0px;stroke-linecap:butt;stroke-linejoin:miter;stroke-opacity:1"/>
<path class="bond-1 atom-1 atom-2" d="M 128.8,33.0 L 111.2,42.2" style="fill:none;fill-rule:evenodd;stroke:#000000;stroke-width:2.0px;stroke-linecap:butt;stroke-linejoin:miter;stroke-opacity:1"/>
<path class="bond-2 atom-2 atom-3" d="M 107.7,39.9 L 106.6,63.8" style="fill:none;fill-rule:evenodd;stroke:#000000;stroke-width:2.0px;stroke-linecap:butt;stroke-linejoin:miter;stroke-opacity:1"/>
<path class="bond-3 atom-3 atom-4" d="M 106.7,61.8 L 97.6,66.5" style="fill:none;fill-rule:evenodd;stroke:#000000;stroke-width:2.0px;stroke-linecap:butt;stroke-linejoin:miter;stroke-opacity:1"/>
<path class="bond-3 atom-3 atom-4" d="M 97.6,66.5 L 88.5,71.2" style="fill:none;fill-rule:evenodd;stroke:#FF0000;stroke-width:2.0px;stroke-linecap:butt;stroke-linejoin:miter;stroke-opacity:1"/>
<path class="bond-3 atom-3 atom-4" d="M 108.4,64.9 L 99.3,69.7" style="fill:none;fill-rule:evenodd;stroke:#000000;stroke-width:2.0px;stroke-linecap:butt;stroke-linejoin:miter;stroke-opacity:1"/>
<path class="bond-3 atom-3 atom-4" d="M 99.3,69.7 L 90.1,74.4" style="fill:none;fill-rule:evenodd;stroke:#FF0000;stroke-width:2.0px;stroke-linecap:butt;stroke-linejoin:miter;stroke-opacity:1"/>
<path class="bond-4 atom-3 atom-5" d="M 106.6,63.8 L 114.8,69.0" style="fill:none;fill-rule:evenodd;stroke:#000000;stroke-width:2.0px;stroke-linecap:butt;stroke-linejoin:miter;stroke-opacity:1"/>
<path class="bond-4 atom-3 atom-5" d="M 114.8,69.0 L 122.9,74.2" style="fill:none;fill-rule:evenodd;stroke:#FF0000;stroke-width:2.0px;stroke-linecap:butt;stroke-linejoin:miter;stroke-opacity:1"/>
<path class="bond-5 atom-5 atom-6" d="M 130.7,74.7 L 139.4,70.2" style="fill:none;fill-rule:evenodd;stroke:#FF0000;stroke-width:2.0px;stroke-linecap:butt;stroke-linejoin:miter;stroke-opacity:1"/>
<path class="bond-5 atom-5 atom-6" d="M 139.4,70.2 L 148.0,65.7" style="fill:none;fill-rule:evenodd;stroke:#000000;stroke-width:2.0px;stroke-linecap:butt;stroke-linejoin:miter;stroke-opacity:1"/>
<path class="bond-6 atom-6 atom-7" d="M 148.0,65.7 L 168.2,78.6" style="fill:none;fill-rule:evenodd;stroke:#000000;stroke-width:2.0px;stroke-linecap:butt;stroke-linejoin:miter;stroke-opacity:1"/>
<path class="bond-6 atom-6 atom-7" d="M 151.7,63.8 L 168.4,74.4" style="fill:none;fill-rule:evenodd;stroke:#000000;stroke-width:2.0px;stroke-linecap:butt;stroke-linejoin:miter;stroke-opacity:1"/>
<path class="bond-7 atom-7 atom-8" d="M 168.2,78.6 L 189.5,67.6" style="fill:none;fill-rule:evenodd;stroke:#000000;stroke-width:2.0px;stroke-linecap:butt;stroke-linejoin:miter;stroke-opacity:1"/>
<path class="bond-8 atom-8 atom-9" d="M 189.5,67.6 L 190.5,43.7" style="fill:none;fill-rule:evenodd;stroke:#000000;stroke-width:2.0px;stroke-linecap:butt;stroke-linejoin:miter;stroke-opacity:1"/>
<path class="bond-8 atom-8 atom-9" d="M 186.0,65.3 L 186.9,45.6" style="fill:none;fill-rule:evenodd;stroke:#000000;stroke-width:2.0px;stroke-linecap:butt;stroke-linejoin:miter;stroke-opacity:1"/>
<path class="bond-9 atom-9 atom-10" d="M 190.5,43.7 L 199.6,39.0" style="fill:none;fill-rule:evenodd;stroke:#000000;stroke-width:2.0px;stroke-linecap:butt;stroke-linejoin:miter;stroke-opacity:1"/>
<path class="bond-9 atom-9 atom-10" d="M 199.6,39.0 L 208.7,34.2" style="fill:none;fill-rule:evenodd;stroke:#7F4C19;stroke-width:2.0px;stroke-linecap:butt;stroke-linejoin:miter;stroke-opacity:1"/>
<path class="bond-10 atom-9 atom-11" d="M 190.5,43.7 L 170.4,30.8" style="fill:none;fill-rule:evenodd;stroke:#000000;stroke-width:2.0px;stroke-linecap:butt;stroke-linejoin:miter;stroke-opacity:1"/>
<path class="bond-11 atom-11 atom-12" d="M 170.4,30.8 L 149.1,41.8" style="fill:none;fill-rule:evenodd;stroke:#000000;stroke-width:2.0px;stroke-linecap:butt;stroke-linejoin:miter;stroke-opacity:1"/>
<path class="bond-11 atom-11 atom-12" d="M 170.2,34.9 L 152.6,44.0" style="fill:none;fill-rule:evenodd;stroke:#000000;stroke-width:2.0px;stroke-linecap:butt;stroke-linejoin:miter;stroke-opacity:1"/>
<path class="bond-12 atom-8 atom-13" d="M 189.5,67.6 L 189.0,77.4" style="fill:none;fill-rule:evenodd;stroke:#000000;stroke-width:2.0px;stroke-linecap:butt;stroke-linejoin:miter;stroke-opacity:1"/>
<path class="bond-12 atom-8 atom-13" d="M 189.0,77.4 L 188.6,87.3" style="fill:none;fill-rule:evenodd;stroke:#FF0000;stroke-width:2.0px;stroke-linecap:butt;stroke-linejoin:miter;stroke-opacity:1"/>
<path class="bond-13 atom-12 atom-1" d="M 149.1,41.8 L 129.0,28.9" style="fill:none;fill-rule:evenodd;stroke:#000000;stroke-width:2.0px;stroke-linecap:butt;stroke-linejoin:miter;stroke-opacity:1"/>
<path class="bond-14 atom-12 atom-6" d="M 149.1,41.8 L 148.0,65.7" style="fill:none;fill-rule:evenodd;stroke:#000000;stroke-width:2.0px;stroke-linecap:butt;stroke-linejoin:miter;stroke-opacity:1"/>
<path class="bond-15 atom-13 atom-7" d="M 184.5,89.0 L 176.3,83.8" style="fill:none;fill-rule:evenodd;stroke:#FF0000;stroke-width:2.0px;stroke-linecap:butt;stroke-linejoin:miter;stroke-opacity:1"/>
<path class="bond-15 atom-13 atom-7" d="M 176.3,83.8 L 168.2,78.6" style="fill:none;fill-rule:evenodd;stroke:#000000;stroke-width:2.0px;stroke-linecap:butt;stroke-linejoin:miter;stroke-opacity:1"/>
<path d="M 108.8,39.4 L 107.7,39.9 L 107.7,41.1" style="fill:none;stroke:#000000;stroke-width:2.0px;stroke-linecap:butt;stroke-linejoin:miter;stroke-opacity:1;"/>
<path d="M 106.7,62.6 L 106.6,63.8 L 107.1,64.1" style="fill:none;stroke:#000000;stroke-width:2.0px;stroke-linecap:butt;stroke-linejoin:miter;stroke-opacity:1;"/>
<path d="M 171.4,31.4 L 170.4,30.8 L 169.3,31.3" style="fill:none;stroke:#000000;stroke-width:2.0px;stroke-linecap:butt;stroke-linejoin:miter;stroke-opacity:1;"/>
<path class="atom-4" d="M 82.3 74.9 Q 82.3 73.2, 83.1 72.3 Q 83.9 71.4, 85.4 71.4 Q 86.9 71.4, 87.7 72.3 Q 88.5 73.2, 88.5 74.9 Q 88.5 76.5, 87.7 77.4 Q 86.9 78.4, 85.4 78.4 Q 83.9 78.4, 83.1 77.4 Q 82.3 76.5, 82.3 74.9 M 85.4 77.6 Q 86.4 77.6, 87.0 76.9 Q 87.6 76.2, 87.6 74.9 Q 87.6 73.5, 87.0 72.9 Q 86.4 72.2, 85.4 72.2 Q 84.4 72.2, 83.8 72.9 Q 83.2 73.5, 83.2 74.9 Q 83.2 76.2, 83.8 76.9 Q 84.4 77.6, 85.4 77.6 " fill="#FF0000"/>
<path class="atom-5" d="M 123.7 76.7 Q 123.7 75.1, 124.5 74.2 Q 125.3 73.3, 126.8 73.3 Q 128.3 73.3, 129.1 74.2 Q 129.9 75.1, 129.9 76.7 Q 129.9 78.4, 129.1 79.3 Q 128.3 80.2, 126.8 80.2 Q 125.3 80.2, 124.5 79.3 Q 123.7 78.4, 123.7 76.7 M 126.8 79.5 Q 127.8 79.5, 128.4 78.8 Q 129.0 78.1, 129.0 76.7 Q 129.0 75.4, 128.4 74.7 Q 127.8 74.1, 126.8 74.1 Q 125.8 74.1, 125.2 74.7 Q 124.7 75.4, 124.7 76.7 Q 124.7 78.1, 125.2 78.8 Q 125.8 79.5, 126.8 79.5 " fill="#FF0000"/>
<path class="atom-10" d="M 212.8 32.5 Q 213.4 32.7, 213.7 33.1 Q 214.1 33.4, 214.1 34.0 Q 214.1 35.0, 213.5 35.5 Q 212.9 36.0, 211.7 36.0 L 209.5 36.0 L 209.5 29.3 L 211.5 29.3 Q 212.6 29.3, 213.2 29.7 Q 213.8 30.2, 213.8 31.1 Q 213.8 32.1, 212.8 32.5 M 210.4 30.0 L 210.4 32.1 L 211.5 32.1 Q 212.1 32.1, 212.5 31.9 Q 212.8 31.6, 212.8 31.1 Q 212.8 30.0, 211.5 30.0 L 210.4 30.0 M 211.7 35.3 Q 212.4 35.3, 212.8 34.9 Q 213.1 34.6, 213.1 34.0 Q 213.1 33.5, 212.7 33.2 Q 212.3 32.9, 211.6 32.9 L 210.4 32.9 L 210.4 35.3 L 211.7 35.3 " fill="#7F4C19"/>
<path class="atom-10" d="M 215.6 31.1 L 215.7 31.8 Q 216.2 31.0, 217.1 31.0 Q 217.3 31.0, 217.7 31.1 L 217.6 31.9 Q 217.2 31.8, 216.9 31.8 Q 216.5 31.8, 216.3 32.0 Q 216.0 32.1, 215.8 32.5 L 215.8 36.0 L 214.9 36.0 L 214.9 31.1 L 215.6 31.1 " fill="#7F4C19"/>
<path class="atom-13" d="M 185.3 91.5 Q 185.3 89.9, 186.1 89.0 Q 186.9 88.0, 188.4 88.0 Q 189.9 88.0, 190.7 89.0 Q 191.5 89.9, 191.5 91.5 Q 191.5 93.1, 190.7 94.1 Q 189.9 95.0, 188.4 95.0 Q 186.9 95.0, 186.1 94.1 Q 185.3 93.1, 185.3 91.5 M 188.4 94.2 Q 189.4 94.2, 190.0 93.5 Q 190.5 92.8, 190.5 91.5 Q 190.5 90.2, 190.0 89.5 Q 189.4 88.8, 188.4 88.8 Q 187.3 88.8, 186.8 89.5 Q 186.2 90.1, 186.2 91.5 Q 186.2 92.9, 186.8 93.5 Q 187.3 94.2, 188.4 94.2 " fill="#FF0000"/>
<path class="bond-0 atom-0 atom-1" d="M 559.1,54.9 L 553.3,47.8" style="fill:none;fill-rule:evenodd;stroke:#000000;stroke-width:2.0px;stroke-linecap:butt;stroke-linejoin:miter;stroke-opacity:1"/>
<path class="bond-0 atom-0 atom-1" d="M 553.3,47.8 L 547.4,40.7" style="fill:none;fill-rule:evenodd;stroke:#FF0000;stroke-width:2.0px;stroke-linecap:butt;stroke-linejoin:miter;stroke-opacity:1"/>
<path class="bond-1 atom-1 atom-2" d="M 540.0,37.0 L 530.2,38.6" style="fill:none;fill-rule:evenodd;stroke:#FF0000;stroke-width:2.0px;stroke-linecap:butt;stroke-linejoin:miter;stroke-opacity:1"/>
<path class="bond-1 atom-1 atom-2" d="M 530.2,38.6 L 520.3,40.2" style="fill:none;fill-rule:evenodd;stroke:#000000;stroke-width:2.0px;stroke-linecap:butt;stroke-linejoin:miter;stroke-opacity:1"/>
<path class="bond-2 atom-2 atom-3" d="M 520.3,40.2 L 511.8,62.6" style="fill:none;fill-rule:evenodd;stroke:#000000;stroke-width:2.0px;stroke-linecap:butt;stroke-linejoin:miter;stroke-opacity:1"/>
<path class="bond-2 atom-2 atom-3" d="M 516.2,40.9 L 509.2,59.4" style="fill:none;fill-rule:evenodd;stroke:#000000;stroke-width:2.0px;stroke-linecap:butt;stroke-linejoin:miter;stroke-opacity:1"/>
<path class="bond-3 atom-3 atom-4" d="M 511.8,62.6 L 488.2,66.5" style="fill:none;fill-rule:evenodd;stroke:#000000;stroke-width:2.0px;stroke-linecap:butt;stroke-linejoin:miter;stroke-opacity:1"/>
<path class="bond-4 atom-4 atom-5" d="M 488.2,66.5 L 473.1,48.0" style="fill:none;fill-rule:evenodd;stroke:#000000;stroke-width:2.0px;stroke-linecap:butt;stroke-linejoin:miter;stroke-opacity:1"/>
<path class="bond-4 atom-4 atom-5" d="M 489.7,62.6 L 477.2,47.3" style="fill:none;fill-rule:evenodd;stroke:#000000;stroke-width:2.0px;stroke-linecap:butt;stroke-linejoin:miter;stroke-opacity:1"/>
<path class="bond-5 atom-5 atom-6" d="M 473.1,48.0 L 449.5,51.8" style="fill:none;fill-rule:evenodd;stroke:#000000;stroke-width:2.0px;stroke-linecap:butt;stroke-linejoin:miter;stroke-opacity:1"/>
<path class="bond-6 atom-6 atom-7" d="M 449.5,51.8 L 442.6,45.1" style="fill:none;fill-rule:evenodd;stroke:#000000;stroke-width:2.0px;stroke-linecap:butt;stroke-linejoin:miter;stroke-opacity:1"/>
<path class="bond-6 atom-6 atom-7" d="M 442.6,45.1 L 435.8,38.3" style="fill:none;fill-rule:evenodd;stroke:#0000FF;stroke-width:2.0px;stroke-linecap:butt;stroke-linejoin:miter;stroke-opacity:1"/>
<path class="bond-6 atom-6 atom-7" d="M 445.1,52.6 L 439.2,46.7" style="fill:none;fill-rule:evenodd;stroke:#000000;stroke-width:2.0px;stroke-linecap:butt;stroke-linejoin:miter;stroke-opacity:1"/>
<path class="bond-6 atom-6 atom-7" d="M 439.2,46.7 L 433.3,40.9" style="fill:none;fill-rule:evenodd;stroke:#0000FF;stroke-width:2.0px;stroke-linecap:butt;stroke-linejoin:miter;stroke-opacity:1"/>
<path class="bond-7 atom-7 atom-8" d="M 429.1,36.7 L 420.1,41.4" style="fill:none;fill-rule:evenodd;stroke:#0000FF;stroke-width:2.0px;stroke-linecap:butt;stroke-linejoin:miter;stroke-opacity:1"/>
<path class="bond-7 atom-7 atom-8" d="M 420.1,41.4 L 411.2,46.0" style="fill:none;fill-rule:evenodd;stroke:#000000;stroke-width:2.0px;stroke-linecap:butt;stroke-linejoin:miter;stroke-opacity:1"/>
<path class="bond-8 atom-8 atom-9" d="M 411.2,46.0 L 415.0,69.6" style="fill:none;fill-rule:evenodd;stroke:#000000;stroke-width:2.0px;stroke-linecap:butt;stroke-linejoin:miter;stroke-opacity:1"/>
<path class="bond-8 atom-8 atom-9" d="M 415.1,48.0 L 418.2,66.4" style="fill:none;fill-rule:evenodd;stroke:#000000;stroke-width:2.0px;stroke-linecap:butt;stroke-linejoin:miter;stroke-opacity:1"/>
<path class="bond-9 atom-9 atom-10" d="M 415.0,69.6 L 396.5,84.8" style="fill:none;fill-rule:evenodd;stroke:#000000;stroke-width:2.0px;stroke-linecap:butt;stroke-linejoin:miter;stroke-opacity:1"/>
<path class="bond-10 atom-10 atom-11" d="M 396.5,84.8 L 374.1,76.3" style="fill:none;fill-rule:evenodd;stroke:#000000;stroke-width:2.0px;stroke-linecap:butt;stroke-linejoin:miter;stroke-opacity:1"/>
<path class="bond-10 atom-10 atom-11" d="M 395.9,80.7 L 377.4,73.7" style="fill:none;fill-rule:evenodd;stroke:#000000;stroke-width:2.0px;stroke-linecap:butt;stroke-linejoin:miter;stroke-opacity:1"/>
<path class="bond-11 atom-11 atom-12" d="M 374.1,76.3 L 370.3,52.7" style="fill:none;fill-rule:evenodd;stroke:#000000;stroke-width:2.0px;stroke-linecap:butt;stroke-linejoin:miter;stroke-opacity:1"/>
<path class="bond-12 atom-12 atom-13" d="M 370.3,52.7 L 361.9,47.3" style="fill:none;fill-rule:evenodd;stroke:#000000;stroke-width:2.0px;stroke-linecap:butt;stroke-linejoin:miter;stroke-opacity:1"/>
<path class="bond-12 atom-12 atom-13" d="M 361.9,47.3 L 353.5,41.9" style="fill:none;fill-rule:evenodd;stroke:#0000FF;stroke-width:2.0px;stroke-linecap:butt;stroke-linejoin:miter;stroke-opacity:1"/>
<path class="bond-13 atom-13 atom-14" d="M 351.2,35.6 L 353.7,26.1" style="fill:none;fill-rule:evenodd;stroke:#0000FF;stroke-width:2.0px;stroke-linecap:butt;stroke-linejoin:miter;stroke-opacity:1"/>
<path class="bond-13 atom-13 atom-14" d="M 353.7,26.1 L 356.2,16.6" style="fill:none;fill-rule:evenodd;stroke:#000000;stroke-width:2.0px;stroke-linecap:butt;stroke-linejoin:miter;stroke-opacity:1"/>
<path class="bond-14 atom-14 atom-15" d="M 356.2,16.6 L 380.1,15.2" style="fill:none;fill-rule:evenodd;stroke:#000000;stroke-width:2.0px;stroke-linecap:butt;stroke-linejoin:miter;stroke-opacity:1"/>
<path class="bond-14 atom-14 atom-15" d="M 359.0,20.1 L 377.7,19.0" style="fill:none;fill-rule:evenodd;stroke:#000000;stroke-width:2.0px;stroke-linecap:butt;stroke-linejoin:miter;stroke-opacity:1"/>
<path class="bond-15 atom-15 atom-16" d="M 380.1,15.2 L 388.8,37.5" style="fill:none;fill-rule:evenodd;stroke:#000000;stroke-width:2.0px;stroke-linecap:butt;stroke-linejoin:miter;stroke-opacity:1"/>
<path class="bond-16 atom-9 atom-17" d="M 415.0,69.6 L 424.9,71.1" style="fill:none;fill-rule:evenodd;stroke:#000000;stroke-width:2.0px;stroke-linecap:butt;stroke-linejoin:miter;stroke-opacity:1"/>
<path class="bond-16 atom-9 atom-17" d="M 424.9,71.1 L 434.8,72.6" style="fill:none;fill-rule:evenodd;stroke:#FF0000;stroke-width:2.0px;stroke-linecap:butt;stroke-linejoin:miter;stroke-opacity:1"/>
<path class="bond-17 atom-5 atom-18" d="M 473.1,48.0 L 481.5,25.6" style="fill:none;fill-rule:evenodd;stroke:#000000;stroke-width:2.0px;stroke-linecap:butt;stroke-linejoin:miter;stroke-opacity:1"/>
<path class="bond-18 atom-18 atom-19" d="M 481.5,25.6 L 505.1,21.7" style="fill:none;fill-rule:evenodd;stroke:#000000;stroke-width:2.0px;stroke-linecap:butt;stroke-linejoin:miter;stroke-opacity:1"/>
<path class="bond-18 atom-18 atom-19" d="M 484.1,28.8 L 503.7,25.6" style="fill:none;fill-rule:evenodd;stroke:#000000;stroke-width:2.0px;stroke-linecap:butt;stroke-linejoin:miter;stroke-opacity:1"/>
<path class="bond-19 atom-19 atom-2" d="M 505.1,21.7 L 520.3,40.2" style="fill:none;fill-rule:evenodd;stroke:#000000;stroke-width:2.0px;stroke-linecap:butt;stroke-linejoin:miter;stroke-opacity:1"/>
<path class="bond-20 atom-17 atom-6" d="M 440.8,69.0 L 445.1,60.4" style="fill:none;fill-rule:evenodd;stroke:#FF0000;stroke-width:2.0px;stroke-linecap:butt;stroke-linejoin:miter;stroke-opacity:1"/>
<path class="bond-20 atom-17 atom-6" d="M 445.1,60.4 L 449.5,51.8" style="fill:none;fill-rule:evenodd;stroke:#000000;stroke-width:2.0px;stroke-linecap:butt;stroke-linejoin:miter;stroke-opacity:1"/>
<path class="bond-21 atom-16 atom-8" d="M 388.8,37.5 L 411.2,46.0" style="fill:none;fill-rule:evenodd;stroke:#000000;stroke-width:2.0px;stroke-linecap:butt;stroke-linejoin:miter;stroke-opacity:1"/>
<path class="bond-22 atom-16 atom-12" d="M 388.8,37.5 L 370.3,52.7" style="fill:none;fill-rule:evenodd;stroke:#000000;stroke-width:2.0px;stroke-linecap:butt;stroke-linejoin:miter;stroke-opacity:1"/>
<path class="bond-22 atom-16 atom-12" d="M 389.5,41.6 L 374.2,54.2" style="fill:none;fill-rule:evenodd;stroke:#000000;stroke-width:2.0px;stroke-linecap:butt;stroke-linejoin:miter;stroke-opacity:1"/>
<path d="M 512.3,61.5 L 511.8,62.6 L 510.7,62.8" style="fill:none;stroke:#000000;stroke-width:2.0px;stroke-linecap:butt;stroke-linejoin:miter;stroke-opacity:1;"/>
<path d="M 489.4,66.3 L 488.2,66.5 L 487.5,65.6" style="fill:none;stroke:#000000;stroke-width:2.0px;stroke-linecap:butt;stroke-linejoin:miter;stroke-opacity:1;"/>
<path d="M 397.5,84.0 L 396.5,84.8 L 395.4,84.3" style="fill:none;stroke:#000000;stroke-width:2.0px;stroke-linecap:butt;stroke-linejoin:miter;stroke-opacity:1;"/>
<path d="M 375.3,76.7 L 374.1,76.3 L 374.0,75.1" style="fill:none;stroke:#000000;stroke-width:2.0px;stroke-linecap:butt;stroke-linejoin:miter;stroke-opacity:1;"/>
<path d="M 356.1,17.1 L 356.2,16.6 L 357.4,16.5" style="fill:none;stroke:#000000;stroke-width:2.0px;stroke-linecap:butt;stroke-linejoin:miter;stroke-opacity:1;"/>
<path d="M 378.9,15.3 L 380.1,15.2 L 380.5,16.4" style="fill:none;stroke:#000000;stroke-width:2.0px;stroke-linecap:butt;stroke-linejoin:miter;stroke-opacity:1;"/>
<path d="M 481.1,26.7 L 481.5,25.6 L 482.7,25.4" style="fill:none;stroke:#000000;stroke-width:2.0px;stroke-linecap:butt;stroke-linejoin:miter;stroke-opacity:1;"/>
<path d="M 504.0,21.9 L 505.1,21.7 L 505.9,22.6" style="fill:none;stroke:#000000;stroke-width:2.0px;stroke-linecap:butt;stroke-linejoin:miter;stroke-opacity:1;"/>
<path class="atom-1" d="M 540.8 36.4 Q 540.8 34.8, 541.6 33.9 Q 542.4 32.9, 543.9 32.9 Q 545.4 32.9, 546.2 33.9 Q 547.0 34.8, 547.0 36.4 Q 547.0 38.0, 546.2 39.0 Q 545.4 39.9, 543.9 39.9 Q 542.4 39.9, 541.6 39.0 Q 540.8 38.0, 540.8 36.4 M 543.9 39.1 Q 544.9 39.1, 545.5 38.4 Q 546.1 37.7, 546.1 36.4 Q 546.1 35.1, 545.5 34.4 Q 544.9 33.7, 543.9 33.7 Q 542.9 33.7, 542.3 34.4 Q 541.8 35.0, 541.8 36.4 Q 541.8 37.8, 542.3 38.4 Q 542.9 39.1, 543.9 39.1 " fill="#FF0000"/>
<path class="atom-7" d="M 430.9 31.6 L 433.2 35.2 Q 433.4 35.6, 433.7 36.2 Q 434.1 36.9, 434.1 36.9 L 434.1 31.6 L 435.0 31.6 L 435.0 38.4 L 434.1 38.4 L 431.7 34.5 Q 431.4 34.0, 431.1 33.5 Q 430.8 33.0, 430.8 32.8 L 430.8 38.4 L 429.9 38.4 L 429.9 31.6 L 430.9 31.6 " fill="#0000FF"/>
<path class="atom-13" d="M 340.9 36.4 L 341.9 36.4 L 341.9 39.3 L 345.3 39.3 L 345.3 36.4 L 346.2 36.4 L 346.2 43.2 L 345.3 43.2 L 345.3 40.0 L 341.9 40.0 L 341.9 43.2 L 340.9 43.2 L 340.9 36.4 " fill="#0000FF"/>
<path class="atom-13" d="M 348.6 36.4 L 350.9 40.0 Q 351.1 40.3, 351.4 41.0 Q 351.8 41.6, 351.8 41.6 L 351.8 36.4 L 352.7 36.4 L 352.7 43.2 L 351.8 43.2 L 349.4 39.2 Q 349.1 38.8, 348.8 38.2 Q 348.5 37.7, 348.5 37.6 L 348.5 43.2 L 347.6 43.2 L 347.6 36.4 L 348.6 36.4 " fill="#0000FF"/>
<path class="atom-17" d="M 435.6 73.2 Q 435.6 71.6, 436.4 70.7 Q 437.2 69.8, 438.7 69.8 Q 440.2 69.8, 441.0 70.7 Q 441.8 71.6, 441.8 73.2 Q 441.8 74.9, 441.0 75.8 Q 440.2 76.8, 438.7 76.8 Q 437.2 76.8, 436.4 75.8 Q 435.6 74.9, 435.6 73.2 M 438.7 76.0 Q 439.7 76.0, 440.3 75.3 Q 440.9 74.6, 440.9 73.2 Q 440.9 71.9, 440.3 71.2 Q 439.7 70.6, 438.7 70.6 Q 437.7 70.6, 437.1 71.2 Q 436.5 71.9, 436.5 73.2 Q 436.5 74.6, 437.1 75.3 Q 437.7 76.0, 438.7 76.0 " fill="#FF0000"/>
</svg>